<svg xmlns="http://www.w3.org/2000/svg" viewBox="0 0 100 100">
  <!-- Maple leaf -->
  <path fill="#B5342A" d="
    M50,4
    Q48,16 44,21
    Q36,20 29,18
    Q33,25 36,31
    Q27,30 20,28
    Q24,36 28,43
    Q20,46 14,51
    Q22,53 30,56
    Q33,62 35,69
    Q40,66 43,63
    L46,82
    L46,96
    Q50,99 54,96
    L54,82
    L57,63
    Q60,66 65,69
    Q67,62 70,56
    Q78,53 86,51
    Q80,46 72,43
    Q76,36 80,28
    Q73,30 63,31
    Q67,25 71,18
    Q64,20 56,21
    Q52,16 50,4
    Z
  "/>
</svg>
